<svg xmlns="http://www.w3.org/2000/svg" width="6.031" height="11.41" viewBox="0 0 6.031 11.41">
  <defs>
    <style>
      .cls-1 {
        fill: #fff;
        fill-rule: evenodd;
      }
    </style>
  </defs>
  <path id="ARROW_LEFT" data-name="ARROW / LEFT" class="cls-1" d="M578.242,5143.43l-3.958,4.27,4.01,4.32h0a0.865,0.865,0,0,1,.212.57,0.789,0.789,0,0,1-.756.81,0.731,0.731,0,0,1-.524-0.23h0l-4.533-4.88h0a0.855,0.855,0,0,1-.232-0.59h0a0.855,0.855,0,0,1,.232-0.59h0l4.533-4.89,0,0.01a0.73,0.73,0,0,1,.523-0.23,0.783,0.783,0,0,1,.756.81A0.842,0.842,0,0,1,578.242,5143.43Z" transform="translate(-572.469 -5142)"/>
</svg>
