<svg xmlns="http://www.w3.org/2000/svg" width="6.03" height="11.41" viewBox="0 0 6.03 11.41">
  <defs>
    <style>
      .cls-1 {
        fill: #fff;
        fill-rule: evenodd;
      }
    </style>
  </defs>
  <path id="ARROW_LEFT" data-name="ARROW / LEFT" class="cls-1" d="M1027.76,5150.57l3.96-4.27-4.01-4.32h0a0.877,0.877,0,0,1-.22-0.57,0.784,0.784,0,0,1,.76-0.81,0.719,0.719,0,0,1,.52.23h0l4.54,4.88h0a0.867,0.867,0,0,1,.23.59h0a0.867,0.867,0,0,1-.23.59h0l-4.54,4.89v-0.01a0.719,0.719,0,0,1-.52.23,0.784,0.784,0,0,1-.76-0.81A0.851,0.851,0,0,1,1027.76,5150.57Z" transform="translate(-1027.5 -5140.59)"/>
</svg>
