<svg xmlns="http://www.w3.org/2000/svg" width="42" height="36" viewBox="0 0 42 36"><g><g><path fill="#fff" d="M31.915 28.95a1.944 1.944 0 0 1-1.954-1.935c0-1.068.874-1.934 1.954-1.934 3.237 0 5.862-2.599 5.862-5.804a5.76 5.76 0 0 0-2.394-4.671 5.963 5.963 0 0 0-.39-.262l-.063-.038a5.736 5.736 0 0 0-.384-.21l-.108-.052a5.723 5.723 0 0 0-.366-.16c-.054-.021-.109-.04-.164-.06a5.536 5.536 0 0 0-.338-.112c-.076-.022-.153-.04-.23-.06-.1-.024-.198-.05-.298-.07-.106-.02-.214-.033-.321-.048-.078-.01-.154-.025-.232-.032a5.877 5.877 0 0 0-.574-.029c-.062 0-.12.007-.182.01a10.63 10.63 0 0 0-.222-.975c-.022-.079-.051-.153-.075-.23a10.691 10.691 0 0 0-.237-.718c-.026-.071-.06-.139-.088-.209a10.877 10.877 0 0 0-.308-.705c-.027-.055-.058-.108-.086-.163-.123-.24-.25-.477-.39-.707a11.066 11.066 0 0 0-9.485-5.331c-4.033 0-7.552 2.14-9.485 5.33-.14.23-.267.468-.39.708-.027.055-.059.108-.086.163-.112.23-.212.467-.308.705-.028.07-.061.138-.088.21-.09.234-.164.474-.237.716-.023.078-.053.152-.074.23-.089.32-.164.645-.223.975-.06-.002-.12-.009-.181-.009-.194 0-.386.01-.575.03-.078.006-.154.02-.232.031-.107.015-.215.029-.32.049-.101.02-.2.045-.298.07-.077.019-.155.037-.23.059a5.489 5.489 0 0 0-.339.113c-.055.02-.11.038-.164.06a5.701 5.701 0 0 0-.366.16l-.108.051a5.735 5.735 0 0 0-.837.51l-.026.02a5.76 5.76 0 0 0-2.367 4.652c0 3.204 2.624 5.803 5.862 5.803 1.079 0 1.954.866 1.954 1.934A1.944 1.944 0 0 1 9.77 28.95C4.374 28.95 0 24.62 0 19.277c0-4.358 2.911-8.04 6.913-9.25A14.946 14.946 0 0 1 20.843.576a14.946 14.946 0 0 1 13.929 9.45c4.001 1.21 6.912 4.893 6.912 9.251 0 5.342-4.374 9.673-9.77 9.673zM14.98 25.725c.577 0 1.09.253 1.447.646l.006-.005 2.455 2.701v-9.79c0-1.069.875-1.935 1.954-1.935 1.08 0 1.954.866 1.954 1.935v9.79l2.456-2.7.005.004c.358-.393.87-.646 1.447-.646 1.08 0 1.954.867 1.954 1.935 0 .498-.195.947-.507 1.29l.005.005-5.862 6.448-.005-.004a1.95 1.95 0 0 1-1.447.645 1.95 1.95 0 0 1-1.447-.645l-.005.004-5.862-6.448.005-.005a1.91 1.91 0 0 1-.507-1.29c0-1.068.875-1.935 1.954-1.935z"/></g></g></svg>