<svg xmlns="http://www.w3.org/2000/svg" width="47" height="40" viewBox="0 0 47 40"><g><g><path fill="#fff" d="M37.574 25.403c-5.205 0-9.425-4.248-9.425-9.487 0-5.24 4.22-9.487 9.425-9.487 5.206 0 9.426 4.248 9.426 9.487 0 5.24-4.22 9.487-9.426 9.487zm4.35-11.676H39.75v-2.19c0-1.21-.973-2.189-2.175-2.189-1.201 0-2.175.98-2.175 2.19v2.189h-2.175c-1.201 0-2.175.98-2.175 2.19 0 1.208.974 2.188 2.175 2.188h2.175v2.19c0 1.209.974 2.19 2.175 2.19a2.183 2.183 0 0 0 2.175-2.19v-2.19h2.176c1.2 0 2.175-.98 2.175-2.189 0-1.21-.974-2.19-2.175-2.19zM28.665 8.44l-2.413-4.589.01-.005a2.177 2.177 0 0 1-.288-1.068c0-1.209.974-2.189 2.176-2.189.852 0 1.582.499 1.939 1.217l.008-.004 2.007 3.817a11.656 11.656 0 0 0-3.438 2.821zM21.35 3.852l-4.81 9.145h-4.923l5.888-11.194.005.003A2.166 2.166 0 0 1 19.448.59c1.201 0 2.175.98 2.175 2.19 0 .388-.11.748-.286 1.065zm4.66 11.334c-.015.243-.037.483-.037.73 0 3.686 1.7 6.967 4.35 9.107v8.408c0 1.21.975 2.19 2.176 2.19s2.175-.98 2.175-2.19v-6.22c.929.24 1.897.382 2.9.382 1.206 0 2.368-.186 3.461-.53l-2.8 11.278-.007-.002a2.175 2.175 0 0 1-2.104 1.66H11.472a2.175 2.175 0 0 1-2.104-1.66l-.006.002L4.7 19.565H2.772a2.182 2.182 0 0 1-2.176-2.19c0-1.208.974-2.19 2.176-2.19zM21.623 33.43c0 1.21.974 2.19 2.175 2.19 1.202 0 2.175-.98 2.175-2.19V21.754c0-1.209-.973-2.19-2.175-2.19-1.201 0-2.175.981-2.175 2.19zm-4.35-11.677c0-1.209-.974-2.19-2.175-2.19-1.202 0-2.176.981-2.176 2.19v11.677c0 1.21.974 2.19 2.176 2.19 1.2 0 2.175-.98 2.175-2.19z"/></g></g></svg>