<svg xmlns="http://www.w3.org/2000/svg" width="64" height="62" viewBox="0 0 64 62"><g><g><path fill="#ec4848" d="M64.001 58.992s-.004-.567-.097-1.47c-1.052.908-2.405 1.477-3.904 1.477a5.94 5.94 0 0 1-.832 3H61a3 3 0 0 0 3-3v-.007zM63 53a3 3 0 0 0-3-3h-3v-3a3 3 0 1 0-6 0v3h-3a3 3 0 1 0 0 6h3v3a3 3 0 1 0 6 0v-3h3a3 3 0 0 0 3-3zM50.39 42.235c-.798-.208-1.9-.57-3.69-1.313-6.205-2.57-7.675-3.41-7.675-3.41l-.054-5.893s2.324-1.764 3.049-7.337c1.45.42 1.941-1.701 2.02-3.055.086-1.31.858-5.39-.917-5.026.363-2.724.648-5.187.519-6.49C43.197 5.133 40.034.354 32.047.006c-6.79.349-11.198 5.13-11.643 9.707-.127 1.304.133 3.764.496 6.494-1.774-.37-1.01 3.718-.932 5.026.085 1.354.565 3.482 2.02 3.062.722 5.574 3.046 7.352 3.046 7.352l-.058 5.923s-1.47.897-7.675 3.466c-6.206 2.574-4.26.533-9.314 3.048C-.001 48.06-.001 58.992-.001 58.992H0L0 58.999a3 3 0 0 0 3 3h45.832A5.94 5.94 0 0 1 48 59a6 6 0 0 1 0-12c0-1.952.946-3.669 2.39-4.764z"/></g></g></svg>