<svg xmlns="http://www.w3.org/2000/svg" width="44" height="40" viewBox="0 0 44 40"><g><g><path fill="#fff" d="M38.02 21.742c-2.987 0-5.407-2.433-5.407-5.436 0 3.003-2.421 5.436-5.408 5.436-2.986 0-5.407-2.433-5.407-5.436 0 3.003-2.42 5.436-5.407 5.436-2.986 0-5.407-2.433-5.407-5.436 0 3.003-2.421 5.436-5.407 5.436-2.987 0-5.408-2.433-5.408-5.436L3.971 6.114h35.654l3.802 10.192c0 3.003-2.421 5.436-5.407 5.436zM36.668 4.076H6.928a2.034 2.034 0 0 1-2.027-2.039C4.9.912 5.809 0 6.928 0h29.74c1.12 0 2.028.913 2.028 2.038 0 1.126-.908 2.04-2.028 2.04zM6.252 23.747v-.001a7.42 7.42 0 0 0 .575-.079c.04-.008.083-.01.123-.019.088-.016.172-.04.259-.06.367-.084.726-.19 1.071-.325v10.03h27.036v-10.03c.345.135.704.24 1.07.324.087.02.172.045.26.061.04.008.082.011.123.019.19.032.38.061.575.079v.001c.222.021.448.034.676.034.462 0 .913-.05 1.351-.13v13.72a2.033 2.033 0 0 1-2.027 2.037H6.252a2.033 2.033 0 0 1-2.027-2.038V23.651c.439.08.89.13 1.352.13.228 0 .453-.013.675-.034z"/></g></g></svg>