<svg xmlns="http://www.w3.org/2000/svg" width="40" height="40" viewBox="0 0 40 40"><g><g><path fill="#fff" d="M38.268 40H2.63a1.845 1.845 0 0 1-1.844-1.848V2.437C.786 1.417 1.612.59 2.63.59h35.638c1.018 0 1.843.828 1.843 1.847v35.715c0 1.02-.825 1.847-1.843 1.847zM36.425 4.284H4.473v32.02h31.952zM7.195 20.589v-.001l4.915-3.08.001.002a1.831 1.831 0 0 1 1.997.045l.007-.011 8.149 5.443 9.386-6.64a1.846 1.846 0 0 1 2.167 2.988l.001.001-10.446 7.39v-.002a1.832 1.832 0 0 1-2.138.016l-8.18-5.465L9.2 23.688a1.845 1.845 0 0 1-2.884-1.525c0-.666.352-1.249.88-1.574z"/></g></g></svg>